<svg xmlns="http://www.w3.org/2000/svg" viewBox="0 0 32 32" fill="none">
  <path fill="#57534e" d="M1 9 Q16 4 31 9 V12 H1 V9Z"/>
  <path fill="#44403c" d="M1 12 H31 V14 H1 V12Z"/>
  <path fill="#bae6fd" d="M5 12 H27 V23 C27 23 24 25 16 25 C8 25 5 23 5 23 V12Z"/>
  <path fill="#7dd3fc" d="M7 12 H10 V22 C10 22 11 23 12 23 V12 H7Z M14 12 H18 V24 C18 24 16 25 16 25 V12 H14Z M20 12 H23 V22 C23 22 21 23 20 23 V12Z"/>
  <path fill="#e0f2fe" d="M8 12 H9 V20 H8 V12Z M15 12 H17 V23 H15 V12Z M22 12 H23 V20 H22 V12Z"/>
  <path fill="#38bdf8" d="M3 24 H29 V26 H3 V24Z"/>
  <ellipse cx="16" cy="27.5" rx="10" ry="2" fill="#0ea5e9" opacity="0.5"/>
  <path fill="#f0f9ff" opacity="0.65" d="M11 18 Q12 20 11 22 Q10 20 11 18Z M19 19 Q20 21 19 23 Q18 21 19 19Z"/>
</svg>
